<svg xmlns="http://www.w3.org/2000/svg" xmlns:xlink="http://www.w3.org/1999/xlink" width="500" zoomAndPan="magnify" viewBox="0 0 375 374.999991" height="500" preserveAspectRatio="xMidYMid meet" version="1.0"><defs><g/><clipPath id="b1cd39cd93"><path d="M 37.5 167.730469 L 119.320312 167.730469 L 119.320312 224 L 37.5 224 Z M 37.5 167.730469 " clip-rule="nonzero"/></clipPath><clipPath id="5b0f0b2891"><path d="M 67 223 L 90 223 L 90 233.511719 L 67 233.511719 Z M 67 223 " clip-rule="nonzero"/></clipPath><clipPath id="85990a4a74"><path d="M 73 206 L 84 206 L 84 210.902344 L 73 210.902344 Z M 73 206 " clip-rule="nonzero"/></clipPath><clipPath id="beeeff81aa"><path d="M 77 174.535156 L 80 174.535156 L 80 181 L 77 181 Z M 77 174.535156 " clip-rule="nonzero"/></clipPath><clipPath id="dbf8d9c604"><path d="M 60.667969 192 L 68 192 L 68 194 L 60.667969 194 Z M 60.667969 192 " clip-rule="nonzero"/></clipPath><clipPath id="66119fb380"><path d="M 89 191 L 95.964844 191 L 95.964844 193 L 89 193 Z M 89 191 " clip-rule="nonzero"/></clipPath></defs><rect x="-37.5" width="450" fill="#ffffff" y="-37.499999" height="449.999989" fill-opacity="1"/><rect x="-37.5" width="450" fill="#ffffff" y="-37.499999" height="449.999989" fill-opacity="1"/><rect x="-37.5" width="450" fill="#ffffff" y="-37.499999" height="449.999989" fill-opacity="1"/><g clip-path="url(#b1cd39cd93)"><path fill="#000000" d="M 117.695312 167.851562 L 39.125 167.851562 C 38.230469 167.851562 37.5 168.578125 37.5 169.472656 L 37.5 221.46875 C 37.5 222.359375 38.230469 223.085938 39.125 223.085938 L 117.695312 223.085938 C 118.597656 223.085938 119.320312 222.359375 119.320312 221.46875 L 119.320312 169.472656 C 119.320312 168.578125 118.59375 167.851562 117.695312 167.851562 Z M 115.894531 213.25 C 115.894531 214.144531 115.164062 214.871094 114.269531 214.871094 L 42.550781 214.871094 C 41.65625 214.871094 40.925781 214.144531 40.925781 213.25 L 40.925781 171.78125 C 40.925781 170.890625 41.65625 170.164062 42.550781 170.164062 L 114.269531 170.164062 C 115.164062 170.164062 115.894531 170.890625 115.894531 171.78125 Z M 115.894531 213.25 " fill-opacity="1" fill-rule="nonzero"/></g><g clip-path="url(#5b0f0b2891)"><path fill="#000000" d="M 88.804688 233.390625 L 68.027344 233.390625 C 67.304688 233.390625 66.886719 232.585938 67.292969 231.996094 L 70.308594 227.632812 C 70.574219 227.242188 70.71875 226.785156 70.71875 226.304688 L 70.71875 223.082031 L 86.09375 223.082031 L 86.09375 226.214844 C 86.09375 226.679688 86.238281 227.140625 86.5 227.53125 L 89.542969 231.996094 C 89.949219 232.585938 89.523438 233.390625 88.804688 233.390625 Z M 88.804688 233.390625 " fill-opacity="1" fill-rule="nonzero"/></g><path fill="#ff9900" d="M 87.394531 193.53125 C 87.125 198.394531 83.097656 198.109375 83.058594 205.480469 L 73.339844 205.480469 C 73.300781 198.109375 69.273438 198.394531 69.003906 193.53125 C 68.449219 183.464844 77.9375 183.292969 78.195312 183.285156 C 78.195312 183.285156 78.199219 183.285156 78.199219 183.285156 C 78.457031 183.289062 87.949219 183.460938 87.394531 193.53125 Z M 87.394531 193.53125 " fill-opacity="1" fill-rule="nonzero"/><g clip-path="url(#85990a4a74)"><path fill="#ff9900" d="M 73.34375 206.535156 C 73.34375 206.566406 73.339844 206.601562 73.339844 206.636719 C 73.339844 208.988281 75.515625 210.894531 78.199219 210.894531 C 80.878906 210.894531 83.054688 208.988281 83.054688 206.636719 C 83.054688 206.601562 83.050781 206.566406 83.050781 206.535156 Z M 73.34375 206.535156 " fill-opacity="1" fill-rule="nonzero"/></g><g clip-path="url(#beeeff81aa)"><path fill="#ff9900" d="M 78.199219 180.96875 C 77.726562 180.96875 77.34375 180.582031 77.34375 180.109375 L 77.34375 175.402344 C 77.34375 174.929688 77.726562 174.542969 78.199219 174.542969 C 78.671875 174.542969 79.054688 174.929688 79.054688 175.402344 L 79.054688 180.109375 C 79.054688 180.582031 78.671875 180.96875 78.199219 180.96875 Z M 78.199219 180.96875 " fill-opacity="1" fill-rule="nonzero"/></g><path fill="#ff9900" d="M 72.0625 182.835938 C 71.769531 182.835938 71.480469 182.679688 71.320312 182.40625 L 68.976562 178.328125 C 68.738281 177.917969 68.882812 177.390625 69.289062 177.152344 C 69.699219 176.914062 70.222656 177.058594 70.460938 177.46875 L 72.804688 181.546875 C 73.042969 181.957031 72.898438 182.480469 72.492188 182.71875 C 72.355469 182.796875 72.207031 182.835938 72.0625 182.835938 Z M 72.0625 182.835938 " fill-opacity="1" fill-rule="nonzero"/><path fill="#ff9900" d="M 67.675781 187.527344 C 67.527344 187.527344 67.382812 187.488281 67.246094 187.410156 L 63.179688 185.058594 C 62.773438 184.820312 62.632812 184.296875 62.867188 183.886719 C 63.105469 183.476562 63.628906 183.332031 64.035156 183.570312 L 68.101562 185.921875 C 68.511719 186.160156 68.648438 186.6875 68.414062 187.097656 C 68.257812 187.371094 67.972656 187.527344 67.675781 187.527344 Z M 67.675781 187.527344 " fill-opacity="1" fill-rule="nonzero"/><g clip-path="url(#dbf8d9c604)"><path fill="#ff9900" d="M 66.214844 193.789062 L 61.523438 193.789062 C 61.050781 193.789062 60.667969 193.40625 60.667969 192.933594 C 60.667969 192.457031 61.050781 192.074219 61.523438 192.074219 L 66.214844 192.074219 C 66.6875 192.074219 67.070312 192.457031 67.070312 192.933594 C 67.070312 193.40625 66.6875 193.789062 66.214844 193.789062 Z M 66.214844 193.789062 " fill-opacity="1" fill-rule="nonzero"/></g><path fill="#ff9900" d="M 84.242188 182.5 C 84.097656 182.5 83.953125 182.460938 83.816406 182.386719 C 83.40625 182.148438 83.265625 181.621094 83.5 181.214844 L 85.847656 177.136719 C 86.085938 176.726562 86.605469 176.582031 87.015625 176.820312 C 87.425781 177.058594 87.5625 177.582031 87.328125 177.992188 L 84.984375 182.070312 C 84.824219 182.347656 84.539062 182.5 84.242188 182.5 Z M 84.242188 182.5 " fill-opacity="1" fill-rule="nonzero"/><path fill="#ff9900" d="M 88.714844 186.859375 C 88.417969 186.859375 88.132812 186.707031 87.972656 186.429688 C 87.734375 186.019531 87.878906 185.496094 88.285156 185.257812 L 92.351562 182.902344 C 92.761719 182.664062 93.28125 182.808594 93.519531 183.21875 C 93.757812 183.628906 93.617188 184.152344 93.207031 184.390625 L 89.140625 186.742188 C 89.007812 186.824219 88.859375 186.859375 88.714844 186.859375 Z M 88.714844 186.859375 " fill-opacity="1" fill-rule="nonzero"/><g clip-path="url(#66119fb380)"><path fill="#ff9900" d="M 95.109375 192.875 L 90.414062 192.875 C 89.945312 192.875 89.558594 192.492188 89.558594 192.015625 C 89.558594 191.542969 89.945312 191.160156 90.414062 191.160156 L 95.109375 191.160156 C 95.582031 191.160156 95.964844 191.542969 95.964844 192.015625 C 95.964844 192.492188 95.582031 192.875 95.109375 192.875 Z M 95.109375 192.875 " fill-opacity="1" fill-rule="nonzero"/></g><g fill="#000000" fill-opacity="1"><g transform="translate(134.408603, 215.259047)"><g><path d="M 26.671875 -6.25 L 26.109375 0 L 4.578125 0 L 5.015625 -11.875 L 4.578125 -39.84375 L 13.125 -39.84375 L 12.625 -12.625 L 12.8125 -6.9375 L 26.171875 -6.9375 Z M 26.671875 -6.25 "/></g></g></g><g fill="#000000" fill-opacity="1"><g transform="translate(161.201683, 215.259047)"><g><path d="M 26.046875 -13.359375 L 9.34375 -13.234375 C 9.71875 -8.078125 12.335938 -5.5 17.203125 -5.5 C 19.753906 -5.5 22.597656 -6.222656 25.734375 -7.671875 L 26.421875 -7.234375 L 25.1875 -1.109375 C 22.050781 0.046875 19.097656 0.625 16.328125 0.625 C 11.796875 0.625 8.238281 -0.691406 5.65625 -3.328125 C 3.082031 -5.972656 1.796875 -9.628906 1.796875 -14.296875 C 1.796875 -18.910156 3.050781 -22.566406 5.5625 -25.265625 C 8.082031 -27.972656 11.488281 -29.328125 15.78125 -29.328125 C 19.445312 -29.328125 22.28125 -28.328125 24.28125 -26.328125 C 26.28125 -24.328125 27.28125 -21.53125 27.28125 -17.9375 C 27.28125 -16.988281 27.179688 -15.796875 26.984375 -14.359375 Z M 20.109375 -18.875 C 20.109375 -20.519531 19.734375 -21.765625 18.984375 -22.609375 C 18.242188 -23.460938 17.15625 -23.890625 15.71875 -23.890625 C 14.101562 -23.890625 12.757812 -23.363281 11.6875 -22.3125 C 10.613281 -21.257812 9.894531 -19.742188 9.53125 -17.765625 L 19.984375 -18 Z M 20.109375 -18.875 "/></g></g></g><g fill="#000000" fill-opacity="1"><g transform="translate(190.408003, 215.259047)"><g><path d="M 15.09375 -29.328125 C 18.269531 -29.328125 20.753906 -28.613281 22.546875 -27.1875 C 24.347656 -25.769531 25.25 -23.78125 25.25 -21.21875 C 25.25 -20.476562 25.125 -18.128906 24.875 -14.171875 C 24.832031 -13.015625 24.769531 -11.828125 24.6875 -10.609375 C 24.601562 -9.390625 24.5625 -8.347656 24.5625 -7.484375 C 24.5625 -6.785156 24.664062 -6.300781 24.875 -6.03125 C 25.082031 -5.757812 25.453125 -5.625 25.984375 -5.625 C 26.398438 -5.625 26.9375 -5.707031 27.59375 -5.875 L 28.21875 -5.390625 L 27.46875 -1.046875 C 26.15625 -0.179688 24.648438 0.332031 22.953125 0.5 C 21.710938 0.375 20.679688 -0.0664062 19.859375 -0.828125 C 19.035156 -1.597656 18.476562 -2.660156 18.1875 -4.015625 L 17.765625 -4.015625 C 15.703125 -1.835938 13.578125 -0.3125 11.390625 0.5625 C 8.421875 0.519531 6.085938 -0.257812 4.390625 -1.78125 C 2.703125 -3.3125 1.859375 -5.398438 1.859375 -8.046875 C 1.859375 -10.109375 2.382812 -11.726562 3.4375 -12.90625 C 4.488281 -14.082031 6.085938 -14.875 8.234375 -15.28125 L 17.703125 -17.078125 L 17.703125 -19.609375 C 17.703125 -22.296875 16.378906 -23.640625 13.734375 -23.640625 C 12.453125 -23.640625 11.097656 -23.347656 9.671875 -22.765625 C 8.253906 -22.191406 6.660156 -21.285156 4.890625 -20.046875 L 4.265625 -20.421875 L 3.34375 -25.859375 C 5.113281 -26.972656 7.007812 -27.828125 9.03125 -28.421875 C 11.050781 -29.023438 13.070312 -29.328125 15.09375 -29.328125 Z M 11.078125 -11.515625 C 10.410156 -11.347656 9.921875 -11.066406 9.609375 -10.671875 C 9.304688 -10.273438 9.15625 -9.6875 9.15625 -8.90625 C 9.15625 -7.832031 9.441406 -6.992188 10.015625 -6.390625 C 10.597656 -5.796875 11.40625 -5.5 12.4375 -5.5 C 14.039062 -5.5 15.734375 -6.453125 17.515625 -8.359375 L 17.640625 -12.9375 Z M 11.078125 -11.515625 "/></g></g></g><g fill="#000000" fill-opacity="1"><g transform="translate(220.171216, 215.259047)"><g><path d="M 19.671875 -28.828125 C 20.046875 -28.828125 20.5625 -28.785156 21.21875 -28.703125 L 21.21875 -21.09375 L 20.359375 -20.796875 C 19.660156 -21.078125 18.894531 -21.21875 18.0625 -21.21875 C 15.675781 -21.21875 13.515625 -19.671875 11.578125 -16.578125 L 11.578125 -12.6875 L 12 0 L 3.78125 0 L 4.265625 -11.875 L 3.890625 -28.21875 L 11.6875 -28.890625 L 11.625 -23.265625 L 12.125 -23.265625 C 14.144531 -26.972656 16.660156 -28.828125 19.671875 -28.828125 Z M 19.671875 -28.828125 "/></g></g></g><g fill="#000000" fill-opacity="1"><g transform="translate(241.704687, 215.259047)"><g><path d="M 21.46875 -17.9375 C 21.507812 -19.382812 21.1875 -20.507812 20.5 -21.3125 C 19.820312 -22.113281 18.847656 -22.515625 17.578125 -22.515625 C 15.710938 -22.515625 13.726562 -21.628906 11.625 -19.859375 L 11.625 -12.6875 L 12 0 L 3.78125 0 L 4.203125 -11.875 L 3.890625 -28.21875 L 11.6875 -28.890625 L 11.6875 -24.6875 L 12.125 -24.6875 C 14.394531 -26.75 16.867188 -28.234375 19.546875 -29.140625 C 22.679688 -29.140625 25.070312 -28.425781 26.71875 -27 C 28.375 -25.582031 29.160156 -23.535156 29.078125 -20.859375 L 28.890625 -12.625 L 29.265625 0 L 20.96875 0 Z M 21.46875 -17.9375 "/></g></g></g><g fill="#000000" fill-opacity="1"><g transform="translate(274.438034, 215.259047)"><g><path d="M 4.328125 -11.875 L 4.015625 -28.21875 L 12.125 -28.890625 L 11.75 -12.6875 L 12.125 0 L 3.890625 0 Z M 8.234375 -42.875 C 9.515625 -42.875 10.515625 -42.503906 11.234375 -41.765625 C 11.953125 -41.023438 12.3125 -39.992188 12.3125 -38.671875 C 12.3125 -37.265625 11.921875 -36.148438 11.140625 -35.328125 C 10.359375 -34.503906 9.285156 -34.09375 7.921875 -34.09375 C 6.554688 -34.09375 5.515625 -34.460938 4.796875 -35.203125 C 4.078125 -35.953125 3.71875 -37.003906 3.71875 -38.359375 C 3.71875 -39.722656 4.117188 -40.816406 4.921875 -41.640625 C 5.722656 -42.460938 6.828125 -42.875 8.234375 -42.875 Z M 8.234375 -42.875 "/></g></g></g><g fill="#000000" fill-opacity="1"><g transform="translate(290.588132, 215.259047)"><g><path d="M 18.75 -43.5625 C 20.4375 -43.5625 22.226562 -43.375 24.125 -43 L 23.578125 -36.875 L 23.015625 -36.5 C 21.078125 -37.332031 19.382812 -37.75 17.9375 -37.75 C 15.382812 -37.75 14.085938 -36.28125 14.046875 -33.34375 L 13.984375 -28.53125 L 20.96875 -28.53125 L 21.21875 -28.09375 L 20.859375 -23.578125 L 13.859375 -23.578125 L 13.671875 -12.6875 L 14.109375 0 L 5.875 0 L 6.375 -11.9375 L 6.25 -23.578125 L 1.921875 -23.578125 L 1.609375 -24 L 2.046875 -28.53125 L 6.1875 -28.53125 L 6.125 -31.921875 C 6.125 -35.640625 7.226562 -38.507812 9.4375 -40.53125 C 11.644531 -42.550781 14.75 -43.5625 18.75 -43.5625 Z M 18.75 -43.5625 "/></g></g></g><g fill="#000000" fill-opacity="1"><g transform="translate(310.945928, 215.259047)"><g><path d="M 8.71875 -24.375 L 13.859375 -8.296875 L 14.359375 -8.296875 L 19.484375 -23.703125 L 20.546875 -28.765625 L 27.59375 -28.765625 L 18.1875 -1.921875 C 17.195312 0.890625 16.082031 3.148438 14.84375 4.859375 C 13.613281 6.566406 12.066406 7.96875 10.203125 9.0625 C 8.347656 10.15625 5.957031 11.09375 3.03125 11.875 L 2.40625 11.8125 C 1.007812 10.457031 -0.140625 8.847656 -1.046875 6.984375 L -0.796875 6.1875 C 1.796875 5.726562 3.9375 5.054688 5.625 4.171875 C 7.320312 3.285156 8.929688 1.894531 10.453125 0 L -0.0625 -28.59375 L 7.734375 -28.953125 Z M 8.71875 -24.375 "/></g></g></g><g fill="#000000" fill-opacity="1"><g transform="translate(338.601946, 215.259047)"><g/></g></g></svg>