<svg xmlns="http://www.w3.org/2000/svg" xmlns:xlink="http://www.w3.org/1999/xlink" width="2000" zoomAndPan="magnify" viewBox="0 0 1500 1499.999933" height="2000" preserveAspectRatio="xMidYMid meet" version="1.0"><defs><g/><clipPath id="a2a2b325e8"><path d="M 150 671 L 477.285156 671 L 477.285156 893 L 150 893 Z M 150 671 " clip-rule="nonzero"/></clipPath><clipPath id="d5046c4076"><path d="M 293 826 L 333 826 L 333 843.605469 L 293 843.605469 Z M 293 826 " clip-rule="nonzero"/></clipPath><clipPath id="d4031239e0"><path d="M 309 698.148438 L 317 698.148438 L 317 724 L 309 724 Z M 309 698.148438 " clip-rule="nonzero"/></clipPath><clipPath id="f4bc250957"><path d="M 242.671875 768 L 269 768 L 269 776 L 242.671875 776 Z M 242.671875 768 " clip-rule="nonzero"/></clipPath><clipPath id="6c103d83ae"><path d="M 358 764 L 383.855469 764 L 383.855469 772 L 358 772 Z M 358 764 " clip-rule="nonzero"/></clipPath></defs><g clip-path="url(#a2a2b325e8)"><path fill="#000000" d="M 470.789062 671.410156 L 156.496094 671.410156 C 152.917969 671.410156 150 674.316406 150 677.882812 L 150 885.875 C 150 889.441406 152.917969 892.347656 156.496094 892.347656 L 470.789062 892.347656 C 474.394531 892.347656 477.285156 889.441406 477.285156 885.875 L 477.285156 677.882812 C 477.285156 674.316406 474.367188 671.410156 470.789062 671.410156 Z M 463.578125 853.007812 C 463.578125 856.574219 460.660156 859.480469 457.078125 859.480469 L 170.207031 859.480469 C 166.628906 859.480469 163.710938 856.574219 163.710938 853.007812 L 163.710938 687.128906 C 163.710938 683.5625 166.628906 680.65625 170.207031 680.65625 L 457.078125 680.65625 C 460.660156 680.65625 463.578125 683.5625 463.578125 687.128906 Z M 463.578125 853.007812 " fill-opacity="1" fill-rule="nonzero"/></g><path fill="#000000" d="M 355.222656 933.558594 L 272.117188 933.558594 C 269.226562 933.558594 267.546875 930.347656 269.171875 927.988281 L 281.226562 910.539062 C 282.300781 908.976562 282.878906 907.136719 282.878906 905.214844 L 282.878906 892.320312 L 344.378906 892.320312 L 344.378906 904.859375 C 344.378906 906.726562 344.957031 908.5625 346.003906 910.128906 L 358.167969 927.988281 C 359.792969 930.347656 358.085938 933.558594 355.222656 933.558594 Z M 355.222656 933.558594 " fill-opacity="1" fill-rule="nonzero"/><path fill="#ff9900" d="M 349.570312 774.132812 C 348.492188 793.585938 332.382812 792.441406 332.230469 821.925781 L 293.359375 821.925781 C 293.207031 792.441406 277.097656 793.585938 276.019531 774.132812 C 273.789062 733.851562 311.75 733.167969 312.777344 733.140625 C 312.777344 733.140625 312.789062 733.140625 312.800781 733.140625 C 313.828125 733.152344 351.800781 733.839844 349.570312 774.132812 Z M 349.570312 774.132812 " fill-opacity="1" fill-rule="nonzero"/><g clip-path="url(#d5046c4076)"><path fill="#ff9900" d="M 293.371094 826.144531 C 293.371094 826.273438 293.359375 826.414062 293.359375 826.539062 C 293.359375 835.949219 302.066406 843.578125 312.789062 843.578125 C 323.511719 843.578125 332.21875 835.949219 332.21875 826.539062 C 332.21875 826.414062 332.207031 826.273438 332.207031 826.144531 Z M 293.371094 826.144531 " fill-opacity="1" fill-rule="nonzero"/></g><g clip-path="url(#d4031239e0)"><path fill="#ff9900" d="M 312.800781 723.871094 C 310.914062 723.871094 309.378906 722.335938 309.378906 720.441406 L 309.378906 701.609375 C 309.378906 699.714844 310.914062 698.175781 312.800781 698.175781 C 314.691406 698.175781 316.222656 699.714844 316.222656 701.609375 L 316.222656 720.441406 C 316.222656 722.335938 314.691406 723.871094 312.800781 723.871094 Z M 312.800781 723.871094 " fill-opacity="1" fill-rule="nonzero"/></g><path fill="#ff9900" d="M 288.25 731.335938 C 287.074219 731.335938 285.917969 730.726562 285.285156 729.621094 L 275.90625 713.308594 C 274.957031 711.667969 275.527344 709.570312 277.160156 708.617188 C 278.796875 707.664062 280.886719 708.234375 281.835938 709.875 L 291.21875 726.1875 C 292.167969 727.828125 291.597656 729.925781 289.960938 730.878906 C 289.417969 731.183594 288.835938 731.335938 288.25 731.335938 Z M 288.25 731.335938 " fill-opacity="1" fill-rule="nonzero"/><path fill="#ff9900" d="M 270.695312 750.101562 C 270.113281 750.101562 269.53125 749.949219 268.984375 749.644531 L 252.722656 740.234375 C 251.089844 739.28125 250.53125 737.183594 251.46875 735.542969 C 252.421875 733.902344 254.511719 733.332031 256.148438 734.285156 L 272.40625 743.695312 C 274.042969 744.648438 274.601562 746.746094 273.664062 748.386719 C 273.027344 749.492188 271.886719 750.101562 270.695312 750.101562 Z M 270.695312 750.101562 " fill-opacity="1" fill-rule="nonzero"/><g clip-path="url(#f4bc250957)"><path fill="#ff9900" d="M 264.867188 775.160156 L 246.09375 775.160156 C 244.207031 775.160156 242.671875 773.625 242.671875 771.730469 C 242.671875 769.835938 244.207031 768.296875 246.09375 768.296875 L 264.867188 768.296875 C 266.753906 768.296875 268.289062 769.835938 268.289062 771.730469 C 268.289062 773.625 266.753906 775.160156 264.867188 775.160156 Z M 264.867188 775.160156 " fill-opacity="1" fill-rule="nonzero"/></g><path fill="#ff9900" d="M 336.972656 730 C 336.390625 730 335.804688 729.847656 335.261719 729.542969 C 333.625 728.589844 333.070312 726.492188 334.007812 724.851562 L 343.386719 708.539062 C 344.335938 706.898438 346.425781 706.328125 348.0625 707.28125 C 349.699219 708.234375 350.253906 710.332031 349.316406 711.972656 L 339.9375 728.285156 C 339.304688 729.390625 338.152344 730 336.972656 730 Z M 336.972656 730 " fill-opacity="1" fill-rule="nonzero"/><path fill="#ff9900" d="M 354.855469 747.433594 C 353.675781 747.433594 352.523438 746.820312 351.890625 745.714844 C 350.941406 744.074219 351.511719 741.976562 353.144531 741.023438 L 369.40625 731.617188 C 371.042969 730.664062 373.132812 731.234375 374.082031 732.875 C 375.035156 734.515625 374.464844 736.613281 372.828125 737.566406 L 356.566406 746.972656 C 356.035156 747.292969 355.4375 747.433594 354.855469 747.433594 Z M 354.855469 747.433594 " fill-opacity="1" fill-rule="nonzero"/><g clip-path="url(#6c103d83ae)"><path fill="#ff9900" d="M 380.433594 771.5 L 361.664062 771.5 C 359.773438 771.5 358.238281 769.960938 358.238281 768.066406 C 358.238281 766.171875 359.773438 764.632812 361.664062 764.632812 L 380.433594 764.632812 C 382.320312 764.632812 383.855469 766.171875 383.855469 768.066406 C 383.855469 769.960938 382.320312 771.5 380.433594 771.5 Z M 380.433594 771.5 " fill-opacity="1" fill-rule="nonzero"/></g><g fill="#000000" fill-opacity="1"><g transform="translate(537.634433, 861.036158)"><g><path d="M 106.671875 -25 L 104.453125 0 L 18.3125 0 L 20.046875 -47.515625 L 18.3125 -159.40625 L 52.46875 -159.40625 L 50.5 -50.5 L 51.234375 -27.71875 L 104.703125 -27.71875 Z M 106.671875 -25 "/></g></g></g><g fill="#000000" fill-opacity="1"><g transform="translate(644.80675, 861.036158)"><g><path d="M 104.203125 -53.46875 L 37.375 -52.96875 C 38.863281 -32.34375 49.34375 -22.03125 68.8125 -22.03125 C 79.039062 -22.03125 90.425781 -24.914062 102.96875 -30.6875 L 105.6875 -28.953125 L 100.734375 -4.453125 C 88.191406 0.160156 76.394531 2.46875 65.34375 2.46875 C 47.195312 2.46875 32.960938 -2.804688 22.640625 -13.359375 C 12.328125 -23.921875 7.171875 -38.523438 7.171875 -57.171875 C 7.171875 -75.648438 12.203125 -90.296875 22.265625 -101.109375 C 32.335938 -111.921875 45.953125 -117.328125 63.109375 -117.328125 C 77.796875 -117.328125 89.140625 -113.320312 97.140625 -105.3125 C 105.148438 -97.3125 109.15625 -86.132812 109.15625 -71.78125 C 109.15625 -67.988281 108.742188 -63.203125 107.921875 -57.421875 Z M 80.4375 -75.5 C 80.4375 -82.09375 78.953125 -87.082031 75.984375 -90.46875 C 73.015625 -93.851562 68.644531 -95.546875 62.875 -95.546875 C 56.4375 -95.546875 51.070312 -93.441406 46.78125 -89.234375 C 42.488281 -85.023438 39.601562 -78.957031 38.125 -71.03125 L 79.953125 -72.03125 Z M 80.4375 -75.5 "/></g></g></g><g fill="#000000" fill-opacity="1"><g transform="translate(761.632027, 861.036158)"><g><path d="M 60.390625 -117.328125 C 73.097656 -117.328125 83.039062 -114.476562 90.21875 -108.78125 C 97.394531 -103.09375 100.984375 -95.128906 100.984375 -84.890625 C 100.984375 -81.921875 100.488281 -72.519531 99.5 -56.6875 C 99.332031 -52.0625 99.082031 -47.3125 98.75 -42.4375 C 98.425781 -37.570312 98.265625 -33.410156 98.265625 -29.953125 C 98.265625 -27.140625 98.675781 -25.195312 99.5 -24.125 C 100.320312 -23.0625 101.804688 -22.53125 103.953125 -22.53125 C 105.609375 -22.53125 107.753906 -22.859375 110.390625 -23.515625 L 112.859375 -21.53125 L 109.890625 -4.203125 C 104.609375 -0.742188 98.585938 1.316406 91.828125 1.984375 C 86.878906 1.484375 82.753906 -0.289062 79.453125 -3.34375 C 76.148438 -6.394531 73.921875 -10.644531 72.765625 -16.09375 L 71.03125 -16.09375 C 62.78125 -7.34375 54.285156 -1.234375 45.546875 2.234375 C 33.660156 2.066406 24.332031 -1.066406 17.5625 -7.171875 C 10.800781 -13.285156 7.421875 -21.617188 7.421875 -32.171875 C 7.421875 -40.421875 9.523438 -46.894531 13.734375 -51.59375 C 17.941406 -56.300781 24.335938 -59.484375 32.921875 -61.140625 L 70.796875 -68.3125 L 70.796875 -78.46875 C 70.796875 -89.1875 65.515625 -94.546875 54.953125 -94.546875 C 49.835938 -94.546875 44.429688 -93.390625 38.734375 -91.078125 C 33.046875 -88.773438 26.648438 -85.144531 19.546875 -80.1875 L 17.078125 -81.6875 L 13.359375 -103.46875 C 20.460938 -107.914062 28.054688 -111.335938 36.140625 -113.734375 C 44.222656 -116.128906 52.304688 -117.328125 60.390625 -117.328125 Z M 44.3125 -46.03125 C 41.664062 -45.375 39.722656 -44.257812 38.484375 -42.6875 C 37.242188 -41.125 36.625 -38.773438 36.625 -35.640625 C 36.625 -31.347656 37.78125 -28.003906 40.09375 -25.609375 C 42.40625 -23.222656 45.625 -22.03125 49.75 -22.03125 C 56.1875 -22.03125 62.953125 -25.828125 70.046875 -33.421875 L 70.546875 -51.734375 Z M 44.3125 -46.03125 "/></g></g></g><g fill="#000000" fill-opacity="1"><g transform="translate(880.684879, 861.036158)"><g><path d="M 78.703125 -115.34375 C 80.191406 -115.34375 82.253906 -115.175781 84.890625 -114.84375 L 84.890625 -84.40625 L 81.4375 -83.171875 C 78.625 -84.316406 75.570312 -84.890625 72.28125 -84.890625 C 62.707031 -84.890625 54.039062 -78.703125 46.28125 -66.328125 L 46.28125 -50.734375 L 48.015625 0 L 15.09375 0 L 17.078125 -47.515625 L 15.59375 -112.859375 L 46.78125 -115.59375 L 46.53125 -93.0625 L 48.515625 -93.0625 C 56.597656 -107.914062 66.660156 -115.34375 78.703125 -115.34375 Z M 78.703125 -115.34375 "/></g></g></g><g fill="#000000" fill-opacity="1"><g transform="translate(966.818763, 861.036158)"><g><path d="M 85.890625 -71.78125 C 86.054688 -77.550781 84.773438 -82.046875 82.046875 -85.265625 C 79.328125 -88.484375 75.410156 -90.09375 70.296875 -90.09375 C 62.867188 -90.09375 54.945312 -86.546875 46.53125 -79.453125 L 46.53125 -50.734375 L 48.015625 0 L 15.09375 0 L 16.828125 -47.515625 L 15.59375 -112.859375 L 46.78125 -115.59375 L 46.78125 -98.765625 L 48.515625 -98.765625 C 57.585938 -107.015625 67.488281 -112.953125 78.21875 -116.578125 C 90.757812 -116.578125 100.328125 -113.726562 106.921875 -108.03125 C 113.523438 -102.34375 116.660156 -94.132812 116.328125 -83.40625 L 115.59375 -50.5 L 117.078125 0 L 83.90625 0 Z M 85.890625 -71.78125 "/></g></g></g><g fill="#000000" fill-opacity="1"><g transform="translate(1097.75215, 861.036158)"><g><path d="M 17.328125 -47.515625 L 16.09375 -112.859375 L 48.515625 -115.59375 L 47.03125 -50.734375 L 48.515625 0 L 15.59375 0 Z M 32.921875 -171.53125 C 38.035156 -171.53125 42.035156 -170.046875 44.921875 -167.078125 C 47.804688 -164.109375 49.25 -159.984375 49.25 -154.703125 C 49.25 -149.085938 47.679688 -144.628906 44.546875 -141.328125 C 41.410156 -138.023438 37.125 -136.375 31.6875 -136.375 C 26.238281 -136.375 22.066406 -137.859375 19.171875 -140.828125 C 16.285156 -143.804688 14.84375 -148.015625 14.84375 -153.453125 C 14.84375 -158.898438 16.453125 -163.273438 19.671875 -166.578125 C 22.890625 -169.878906 27.304688 -171.53125 32.921875 -171.53125 Z M 32.921875 -171.53125 "/></g></g></g><g fill="#000000" fill-opacity="1"><g transform="translate(1162.352542, 861.036158)"><g><path d="M 75 -174.25 C 81.757812 -174.25 88.9375 -173.503906 96.53125 -172.015625 L 94.296875 -147.515625 L 92.078125 -146.03125 C 84.316406 -149.332031 77.550781 -150.984375 71.78125 -150.984375 C 61.550781 -150.984375 56.351562 -145.125 56.1875 -133.40625 L 55.9375 -114.109375 L 83.90625 -114.109375 L 84.890625 -112.375 L 83.40625 -94.296875 L 55.4375 -94.296875 L 54.703125 -50.734375 L 56.4375 0 L 23.515625 0 L 25.5 -47.765625 L 25 -94.296875 L 7.671875 -94.296875 L 6.4375 -96.03125 L 8.171875 -114.109375 L 24.75 -114.109375 L 24.5 -127.71875 C 24.5 -142.570312 28.910156 -154.039062 37.734375 -162.125 C 46.566406 -170.207031 58.988281 -174.25 75 -174.25 Z M 75 -174.25 "/></g></g></g><g fill="#000000" fill-opacity="1"><g transform="translate(1243.783723, 861.036158)"><g><path d="M 34.90625 -97.515625 L 55.4375 -33.171875 L 57.421875 -33.171875 L 77.96875 -94.796875 L 82.171875 -115.09375 L 110.390625 -115.09375 L 72.765625 -7.671875 C 68.804688 3.546875 64.351562 12.578125 59.40625 19.421875 C 54.457031 26.273438 48.269531 31.882812 40.84375 36.25 C 33.414062 40.625 23.84375 44.378906 12.125 47.515625 L 9.65625 47.28125 C 4.039062 41.832031 -0.578125 35.394531 -4.203125 27.96875 L -3.21875 24.75 C 7.175781 22.9375 15.753906 20.253906 22.515625 16.703125 C 29.285156 13.160156 35.722656 7.59375 41.828125 0 L -0.25 -114.359375 L 30.9375 -115.84375 Z M 34.90625 -97.515625 "/></g></g></g><g fill="#000000" fill-opacity="1"><g transform="translate(1354.407793, 861.036158)"><g/></g></g></svg>